Coordinates
version=1
nRows=8
nColumns=63
inDegrees=yes

Units are S.I. units (second, meters, Newtons, ...)
If the header above contains a line with 'inDegrees', this indicates whether rotational values are in degrees (yes) or radians (no).

endheader
time	pelvis_tilt	pelvis_list	pelvis_rotation	pelvis_tx	pelvis_ty	pelvis_tz	hip_flexion_r	hip_adduction_r	hip_rotation_r	knee_angle_r	knee_angle_r_beta	ankle_angle_r	subtalar_angle_r	mtp_angle_r	hip_flexion_l	hip_adduction_l	hip_rotation_l	knee_angle_l	knee_angle_l_beta	ankle_angle_l	subtalar_angle_l	mtp_angle_l	L5_S1_Flex_Ext	L5_S1_Lat_Bending	L5_S1_axial_rotation	L4_L5_Flex_Ext	L4_L5_Lat_Bending	L4_L5_axial_rotation	L3_L4_Flex_Ext	L3_L4_Lat_Bending	L3_L4_axial_rotation	L2_L3_Flex_Ext	L2_L3_Lat_Bending	L2_L3_axial_rotation	L1_L2_Flex_Ext	L1_L2_Lat_Bending	L1_L2_axial_rotation	L1_T12_Flex_Ext	L1_T12_Lat_Bending	L1_T12_axial_rotation	Abs_r3	Abs_r2	Abs_r1	Abs_t1	Abs_t2	neck_flexion	neck_bending	neck_rotation	arm_flex_r	arm_add_r	arm_rot_r	elbow_flex_r	pro_sup_r	wrist_flex_r	wrist_dev_r	arm_flex_l	arm_add_l	arm_rot_l	elbow_flex_l	pro_sup_l	wrist_flex_l	wrist_dev_l
      5.48333333	      1.62377127	    -12.14034761	     98.03111067	      0.23247671	      1.07956826	      0.35481339	     -1.81121218	     -0.86327819	     -1.74598306	     10.28302854	      0.17947271	     35.36906414	     -3.00583880	      0.00000000	     -4.94290796	     -1.40570868	      9.81210695	      0.30705690	      0.00535915	     34.25344172	     -1.18347840	      0.00000000	     -0.03986605	     -0.16549473	      0.53296959	     -0.07403523	     -0.22010799	      0.56628019	     -0.06549593	     -0.40238388	      0.56628019	     -0.04556290	     -0.40238388	      0.46634839	     -0.03701961	     -0.33747685	      0.43303779	     -0.02277946	     -0.25635133	      0.39972719	     -0.28475918	     -1.87210946	      2.96421696	      0.00000000	      0.00000000	     27.16715190	     -0.83974062	      3.47967423	      6.12977839	    -11.49623852	     29.07278446	     46.34742677	     80.74519835	     -3.91663914	      6.31969849	      1.06749665	    -14.49150950	     22.97254819	     64.52390991	     89.08466808	     -8.11083359	     16.24407028
      5.50000000	      1.46754402	    -11.55753069	     96.82203246	      0.23198384	      1.07931898	      0.35393379	     -2.35063027	     -1.15725873	     -1.12055698	     10.38490769	      0.18125083	     35.93456388	     -2.04537652	      0.00000000	     -5.74998614	     -1.10890319	      9.11016080	      0.30717022	      0.00536113	     34.49531376	     -1.69023979	      0.00000000	     -0.07041436	     -0.12119811	      0.66460251	     -0.13076650	     -0.16119348	      0.70614016	     -0.11568375	     -0.29468108	      0.70614016	     -0.08047657	     -0.29468108	      0.58152719	     -0.06538677	     -0.24714718	      0.53998954	     -0.04023476	     -0.18773587	      0.49845188	     -0.50296271	     -1.37101723	      3.69631977	      0.00000000	      0.00000000	     27.24950823	     -0.53507294	      4.68668277	      6.57628043	    -11.36481888	     32.76125670	     38.97387442	     82.02143639	     -3.26569176	      6.22382284	      1.13922938	    -14.89756231	     26.54404869	     60.07105939	     89.20452714	     -7.75418174	     15.15146101
      5.51666667	      1.50751711	    -11.04545223	     95.50772044	      0.23130110	      1.07909022	      0.35298543	     -2.76146123	     -1.40185535	     -1.35397892	     10.51987733	      0.18360650	     36.61427842	      0.22752886	      0.00000000	     -6.46966066	     -0.92987049	      8.19677961	      0.30918216	      0.00539625	     34.82786816	     -2.22227291	      0.00000000	     -0.08899842	     -0.04711024	      0.86787332	     -0.16527896	     -0.06265662	      0.92211540	     -0.14621550	     -0.11454384	      0.92211540	     -0.10171629	     -0.11454384	      0.75938916	     -0.08264393	     -0.09606720	      0.70514707	     -0.05085369	     -0.07297376	      0.65090499	     -0.63570678	     -0.53292048	      4.82685105	      0.00000000	      0.00000000	     27.13524285	     -0.39510476	      5.84720650	      7.21397087	    -11.77133217	     39.45783484	     32.28907994	     78.88982587	     -3.07207557	      5.47494934	      1.63851931	    -15.05742695	     32.25619744	     55.18653369	     89.25717875	    -12.35313805	     10.32874995
      5.53333333	      1.48019835	    -10.45503978	     94.31076598	      0.23057441	      1.07885826	      0.35173788	     -3.34365474	     -1.68477289	     -1.33063491	     10.55542476	      0.18422692	     37.16118546	      1.93904334	      0.00000000	     -7.28127285	     -0.67678227	      7.91467900	      0.31104342	      0.00542873	     35.11844743	     -3.37388005	      0.00000000	     -0.12310032	      0.02067377	      1.07146706	     -0.22860960	      0.02749611	      1.13843375	     -0.20224151	      0.05026620	      1.13843375	     -0.14069135	      0.05026620	      0.93753367	     -0.11431095	      0.04215795	      0.87056698	     -0.07033952	      0.03202367	      0.80360029	     -0.87929326	      0.23386579	      5.95917832	      0.00000000	      0.00000000	     26.92602792	     -0.33451897	      6.96062058	      7.94847807	    -12.42209665	     49.77455967	     26.83719990	     71.19174027	     -2.74366441	      4.39512628	      2.33258777	    -15.00068791	     38.45969705	     50.34393766	     89.28643949	    -15.80315576	      6.50125728
      5.55000000	      1.44434974	     -9.89189931	     93.14979770	      0.23014256	      1.07860656	      0.35021289	     -3.95217850	     -1.92175329	     -0.64871354	     10.52796337	      0.18374762	     37.44434476	      2.72194020	      0.00000000	     -8.07472593	     -0.40913073	      7.98544117	      0.31282208	      0.00545978	     35.32247949	     -4.92190737	      0.00000000	     -0.15252783	      0.08002770	      1.29211718	     -0.28325944	      0.10643683	      1.37287450	     -0.25058798	      0.19457934	      1.37287450	     -0.17432406	      0.19457934	      1.13060253	     -0.14163735	      0.16319248	      1.04984521	     -0.08715440	      0.12396290	      0.96908788	     -1.08949105	      0.90528929	      7.18636812	      0.00000000	      0.00000000	     26.69599784	     -0.21422496	      7.82167028	      8.57354282	    -13.04018601	     63.83792138	     22.82894486	     58.34103859	     -2.48944299	      2.43390906	      3.00547633	    -14.66676387	     45.26011986	     45.45645919	     89.25063077	    -18.43521895	      3.95083733
      5.56666667	      1.30320144	     -9.40845879	     92.16419970	      0.23021075	      1.07828081	      0.34837475	     -4.55558406	     -2.21443086	      0.08101213	     10.43834053	      0.18218341	     37.65215984	      3.20504887	      0.00000000	     -8.79331326	     -0.07511526	      8.06732792	      0.31841474	      0.00555739	     35.47368125	     -6.23458628	      0.00000000	     -0.16810195	      0.10705329	      1.44686924	     -0.31218213	      0.14238088	      1.53729857	     -0.27617469	      0.26028938	      1.53729857	     -0.19212371	      0.26028938	      1.26601059	     -0.15609947	      0.21830308	      1.17558126	     -0.09605345	      0.16582555	      1.08515193	     -1.20073540	      1.21100828	      8.04705267	      0.00000000	      0.00000000	     26.52248793	      0.18608702	      8.39333277	      9.34643370	    -13.01628384	     82.13924543	     19.78532530	     40.71177619	     -1.83360422	     -0.53449848	      2.93805073	    -14.18908821	     50.66442989	     41.15303259	     89.12964475	    -18.43936195	      3.24150200
      5.58333333	      1.23312343	     -9.01921443	     91.42191407	      0.23034080	      1.07758009	      0.34627081	     -5.13303733	     -2.40604701	      0.66219984	     10.27443531	      0.17932272	     37.85857272	      3.58739280	      0.00000000	     -9.41398201	      0.14501898	      7.74972930	      0.32842031	      0.00573202	     35.76689578	     -6.69367561	      0.00000000	     -0.17025175	      0.12876529	      1.56507120	     -0.31617452	      0.17125784	      1.66288815	     -0.27970660	      0.31307993	      1.66288815	     -0.19458072	      0.31307993	      1.36943730	     -0.15809577	      0.26257818	      1.27162035	     -0.09728185	      0.19945744	      1.17380340	     -1.21609122	      1.45661874	      8.70445650	      0.00000000	      0.00000000	     26.60451536	      0.68520070	      8.76229601	      7.63124828	    -13.47175733	     83.11665627	     19.84914152	     39.99832060	     -1.72817743	     -0.22781524	      1.87626642	    -13.51301918	     53.28169746	     37.72662935	     88.87337930	    -15.88383947	      3.31471091
      5.60000000	      1.10061569	     -8.70617208	     90.84265206	      0.23086374	      1.07701917	      0.34430988	     -5.65701272	     -2.62171777	      1.21291837	     10.07462299	      0.17583534	     38.00158984	      3.87468776	      0.00000000	     -9.94032419	      0.37765062	      7.51987056	      0.33405715	      0.00583040	     35.89882034	     -7.11247361	      0.00000000	     -0.16116926	      0.12207576	      1.63316142	     -0.29930743	      0.16236076	      1.73523401	     -0.26478497	      0.29681499	      1.73523401	     -0.18420034	      0.29681499	      1.42901624	     -0.14966177	      0.24893688	      1.32694365	     -0.09209211	      0.18909535	      1.22487106	     -1.15121588	      1.38094537	      9.08315387	      0.00000000	      0.00000000	     26.80996776	      1.16721729	      8.42485023	      6.19735315	    -13.80778977	     83.73239189	     20.47629513	     38.66590687	     -2.18010169	     -0.39092074	      0.21466194	    -13.02477517	     53.68920119	     35.15083944	     88.18680100	    -12.57076592	      2.85162178
